<svg width="200" height="60" viewBox="0 0 200 60" fill="none" xmlns="http://www.w3.org/2000/svg">
<path d="M17.3637 46.1087C13.9713 46.1087 11.0699 45.4495 8.65952 44.1312C6.27889 42.7828 4.44878 40.9101 3.16919 38.5131C1.91935 36.0861 1.29443 33.2696 1.29443 30.0635C1.29443 26.8275 1.91935 23.966 3.16919 21.4791C4.44878 18.9922 6.24913 17.0595 8.57025 15.6812C10.9211 14.273 13.7035 13.5688 16.9174 13.5688C20.6073 13.5688 23.6575 14.4528 26.0679 16.2206C28.4783 17.9884 30.0406 20.4304 30.7548 23.5465H24.2378C23.7617 22.1083 22.9136 20.9847 21.6935 20.1757C20.4734 19.3667 18.8814 18.9622 16.9174 18.9622C14.8641 18.9622 13.1083 19.4116 11.6502 20.3105C10.2218 21.2094 9.12077 22.4978 8.34707 24.1758C7.57336 25.8237 7.1865 27.8013 7.1865 30.1084C7.1865 32.3856 7.58824 34.3332 8.3917 35.9512C9.19517 37.5393 10.3408 38.7678 11.8287 39.6367C13.3464 40.5056 15.1914 40.9401 17.3637 40.9401C19.9527 40.9401 21.9911 40.206 23.479 38.7378C24.9966 37.2696 25.7704 35.2321 25.8001 32.6253H17.0959V28.2208H31.6476V30.7377C31.6476 34.1235 31.0226 36.955 29.7728 39.2322C28.5527 41.5094 26.8714 43.2323 24.7288 44.4008C22.5863 45.5394 20.1312 46.1087 17.3637 46.1087ZM34.5667 45.5694V23.2769H40.3696V26.6927C40.935 25.5541 41.664 24.6702 42.5568 24.0409C43.4495 23.3817 44.4762 23.0522 45.6367 23.0522H48.4488V28.2657H45.0564C43.9851 28.2657 43.0924 28.5504 42.3782 29.1197C41.6938 29.689 41.1879 30.5429 40.8606 31.6815C40.5332 32.8201 40.3696 34.2284 40.3696 35.9063V45.5694H34.5667ZM59.334 46.1087C56.8046 46.1087 54.7959 45.2398 53.308 43.5019C51.8499 41.7341 51.1208 39.1723 51.1208 35.8164V23.2769H56.9236V35.2771C56.9236 37.1947 57.2807 38.6629 57.9949 39.6816C58.7388 40.6704 59.8101 41.1648 61.2087 41.1648C62.7862 41.1648 64.0062 40.6105 64.8692 39.5019C65.7322 38.3633 66.1637 36.7902 66.1637 34.7827V23.2769H71.9665V45.5694H66.1637V42.2884C65.509 43.457 64.6163 44.3858 63.4855 45.075C62.3547 45.7641 60.9707 46.1087 59.334 46.1087ZM75.6304 55.4572V23.2769H81.4332V26.4679C82.1474 25.4792 83.0848 24.6102 84.2454 23.8612C85.4357 23.1121 86.9534 22.7375 88.7983 22.7375C90.8814 22.7375 92.7413 23.2469 94.378 24.2657C96.0147 25.2844 97.3091 26.6777 98.2614 28.4455C99.2136 30.2133 99.6898 32.2208 99.6898 34.4681C99.6898 36.6853 99.2136 38.6779 98.2614 40.4457C97.3091 42.2135 96.0147 43.6068 94.378 44.6255C92.7413 45.6143 90.8814 46.1087 88.7983 46.1087C87.1319 46.1087 85.6738 45.7941 84.4239 45.1649C83.2038 44.5357 82.207 43.6667 81.4332 42.5581V55.4572H75.6304ZM87.5039 41.03C88.724 41.03 89.8101 40.7453 90.7624 40.176C91.7146 39.6067 92.4586 38.8277 92.9942 37.8389C93.5299 36.8501 93.7977 35.7265 93.7977 34.4681C93.7977 33.1797 93.5299 32.0411 92.9942 31.0523C92.4586 30.0335 91.7146 29.2395 90.7624 28.6702C89.8101 28.1009 88.724 27.8163 87.5039 27.8163C86.2838 27.8163 85.1976 28.1009 84.2454 28.6702C83.3229 29.2395 82.5938 30.0186 82.0582 31.0073C81.5523 31.9961 81.2993 33.1347 81.2993 34.4231C81.2993 35.7115 81.5523 36.8501 82.0582 37.8389C82.5938 38.8277 83.3229 39.6067 84.2454 40.176C85.1976 40.7453 86.2838 41.03 87.5039 41.03ZM113.463 46.1087C111.231 46.1087 109.222 45.6143 107.437 44.6255C105.651 43.6368 104.238 42.2585 103.196 40.4906C102.155 38.7228 101.634 36.7003 101.634 34.4231C101.634 32.116 102.155 30.0935 103.196 28.3556C104.238 26.5878 105.651 25.2095 107.437 24.2207C109.252 23.2319 111.261 22.7375 113.463 22.7375C115.695 22.7375 117.703 23.2319 119.489 24.2207C121.274 25.2095 122.688 26.5878 123.729 28.3556C124.771 30.0935 125.292 32.116 125.292 34.4231C125.292 36.7003 124.771 38.7228 123.729 40.4906C122.688 42.2585 121.274 43.6368 119.489 44.6255C117.703 45.6143 115.695 46.1087 113.463 46.1087ZM113.463 41.0749C114.534 41.0749 115.516 40.8352 116.409 40.3558C117.302 39.8464 118.001 39.0974 118.507 38.1086C119.042 37.1198 119.31 35.8913 119.31 34.4231C119.31 32.9549 119.042 31.7265 118.507 30.7377C117.971 29.7489 117.257 29.0148 116.364 28.5354C115.501 28.026 114.549 27.7713 113.507 27.7713C112.436 27.7713 111.454 28.026 110.561 28.5354C109.669 29.0448 108.954 29.7938 108.419 30.7826C107.883 31.7414 107.615 32.9549 107.615 34.4231C107.615 35.8913 107.868 37.1198 108.374 38.1086C108.91 39.0974 109.624 39.8464 110.517 40.3558C111.409 40.8352 112.391 41.0749 113.463 41.0749Z" fill="white"/>
<path d="M193.792 13.7326L184.847 44.9439H191.646L199.936 13.7326H193.792Z" fill="#F47A14"/>
<path d="M184.045 13.7326L175.1 44.9439H181.899L190.189 13.7326H184.045Z" fill="#F47A14"/>
<path d="M168.341 44.9441H165.049L166.682 39.243L168.341 44.9441ZM180.139 13.7326L173.372 39.2032L169.914 27.9662L173.994 13.7326H180.139Z" fill="#F47A14"/>
<path d="M146.054 44.9439L137.94 13.7326H143.993L152.765 44.9439H146.054L155.967 13.7326H162.239L171.844 44.9439H165.046L155.967 13.7326H162.239L152.765 44.9439H146.054Z" fill="white"/>
<path d="M193.792 13.7326L184.847 44.9439H191.646L199.936 13.7326H193.792Z" fill="#F47A14"/>
<path d="M184.045 13.7326L175.1 44.9439H181.899L190.189 13.7326H184.045Z" fill="#F47A14"/>
<path d="M168.341 44.9441H165.049L166.682 39.243L168.341 44.9441ZM180.139 13.7326L173.372 39.2032L169.914 27.9662L173.994 13.7326H180.139Z" fill="#F47A14"/>
<path d="M146.054 44.9439L137.94 13.7326H143.993L152.765 44.9439H146.054L155.967 13.7326H162.239L171.844 44.9439H165.046L155.967 13.7326H162.239L152.765 44.9439H146.054Z" fill="white"/>
</svg>
