<svg width="194" height="25" viewBox="0 0 194 25" fill="none" xmlns="http://www.w3.org/2000/svg">
<g clip-path="url(#clip0_168_194)">
<path d="M44.1915 23.7392V5.51956H47.5147V7.32626C47.9237 6.76644 48.4605 6.27447 49.1251 5.85037C49.8068 5.42626 50.6759 5.21421 51.7325 5.21421C52.9255 5.21421 53.9906 5.5026 54.9279 6.07938C55.8652 6.65617 56.6065 7.44501 57.1519 8.4459C57.6972 9.44679 57.9699 10.5834 57.9699 11.8557C57.9699 13.1111 57.6972 14.2392 57.1519 15.2401C56.6065 16.241 55.8652 17.0298 54.9279 17.6066C53.9906 18.1664 52.9255 18.4463 51.7325 18.4463C50.7782 18.4463 49.9431 18.2682 49.2274 17.912C48.5287 17.5557 47.9578 17.0637 47.5147 16.4361V23.7392H44.1915ZM50.9912 15.5709C51.6899 15.5709 52.312 15.4097 52.8573 15.0874C53.4027 14.7651 53.8287 14.324 54.1355 13.7642C54.4422 13.2044 54.5956 12.5682 54.5956 11.8557C54.5956 11.1263 54.4422 10.4816 54.1355 9.92179C53.8287 9.345 53.4027 8.89545 52.8573 8.57313C52.312 8.25081 51.6899 8.08965 50.9912 8.08965C50.2925 8.08965 49.6705 8.25081 49.1251 8.57313C48.5968 8.89545 48.1793 9.33652 47.8726 9.89634C47.5828 10.4562 47.438 11.1008 47.438 11.8303C47.438 12.5597 47.5828 13.2044 47.8726 13.7642C48.1793 14.324 48.5968 14.7651 49.1251 15.0874C49.6705 15.4097 50.2925 15.5709 50.9912 15.5709ZM63.6395 18.4463C62.6852 18.4463 61.8586 18.2767 61.1599 17.9374C60.4782 17.5981 59.9585 17.1401 59.6006 16.5633C59.2427 15.9865 59.0638 15.3504 59.0638 14.6548C59.0638 13.3316 59.5409 12.3137 60.4953 11.6013C61.4496 10.8718 62.7022 10.5071 64.253 10.5071C64.9858 10.5071 65.6164 10.5579 66.1447 10.6597C66.673 10.7615 67.1075 10.8718 67.4484 10.9905V10.3798C67.4484 9.49768 67.1928 8.85304 66.6815 8.4459C66.1873 8.03876 65.5397 7.83519 64.7387 7.83519C64.1763 7.83519 63.6736 7.95393 63.2305 8.19143C62.7874 8.41197 62.5062 8.81063 62.3869 9.38742H59.2427C59.345 8.48831 59.6517 7.7334 60.163 7.12269C60.6742 6.49501 61.3218 6.02001 62.1057 5.69769C62.9067 5.37537 63.7844 5.21421 64.7387 5.21421C66.6304 5.21421 68.1045 5.66376 69.1611 6.56287C70.2347 7.46197 70.7716 8.73429 70.7716 10.3798V13.2298C70.7716 13.8745 70.8056 14.3495 70.8738 14.6548C70.959 14.9602 71.0868 15.1553 71.2572 15.2401C71.4277 15.3249 71.6577 15.3673 71.9474 15.3673H72.0497V18.141H71.3339C70.4307 18.141 69.6809 18.0222 69.0844 17.7847C68.4879 17.5472 68.0534 17.0807 67.7807 16.3852C67.3546 16.9789 66.7923 17.4709 66.0935 17.8611C65.3948 18.2512 64.5768 18.4463 63.6395 18.4463ZM64.3808 15.9271C64.9262 15.9271 65.3863 15.8084 65.7612 15.5709C66.1532 15.3164 66.477 14.9771 66.7326 14.553C66.9882 14.112 67.1672 13.637 67.2694 13.128C66.9116 13.0262 66.494 12.9329 66.0169 12.8481C65.5567 12.7463 65.0881 12.6954 64.6109 12.6954C63.9463 12.6954 63.4094 12.8481 63.0004 13.1535C62.6085 13.4419 62.4125 13.849 62.4125 14.3749C62.4125 14.8329 62.5829 15.2062 62.9238 15.4945C63.2816 15.7829 63.7673 15.9271 64.3808 15.9271ZM80.4265 24.0445C79.3358 24.0445 78.2963 23.8664 77.3078 23.5102C76.3364 23.1539 75.5099 22.5941 74.8282 21.8307C74.1466 21.0843 73.7376 20.1173 73.6012 18.9298H76.8988C77.0522 19.6253 77.4442 20.1767 78.0747 20.5838C78.7223 20.991 79.4807 21.1945 80.3498 21.1945C80.9974 21.1945 81.5854 21.0588 82.1137 20.7874C82.659 20.516 83.0936 20.1088 83.4174 19.566C83.7412 19.0401 83.9031 18.3615 83.9031 17.5303V15.9526C83.6474 16.3597 83.3151 16.7329 82.9061 17.0722C82.4971 17.4115 82.0114 17.6914 81.449 17.912C80.9037 18.1155 80.2731 18.2173 79.5574 18.2173C78.3474 18.2173 77.2567 17.9289 76.2853 17.3521C75.331 16.7754 74.5726 15.995 74.0102 15.0111C73.4649 14.0271 73.1922 12.9245 73.1922 11.703C73.1922 10.4646 73.4649 9.36197 74.0102 8.39501C74.5726 7.41108 75.331 6.6392 76.2853 6.07938C77.2567 5.5026 78.3474 5.21421 79.5574 5.21421C80.5288 5.21421 81.3894 5.41778 82.1392 5.82492C82.8891 6.2151 83.477 6.69858 83.9031 7.27536V5.51956H87.2262V17.3521C87.2262 18.8111 86.911 20.0325 86.2804 21.0164C85.6669 22.0173 84.8404 22.7722 83.8008 23.2811C82.7783 23.7901 81.6535 24.0445 80.4265 24.0445ZM80.222 15.3419C80.9548 15.3419 81.5854 15.1807 82.1137 14.8584C82.659 14.5361 83.085 14.1035 83.3918 13.5606C83.6985 13.0178 83.8519 12.4071 83.8519 11.7285C83.8519 11.016 83.6985 10.3883 83.3918 9.84545C83.085 9.30259 82.659 8.87849 82.1137 8.57313C81.5854 8.25081 80.9548 8.08965 80.222 8.08965C79.5062 8.08965 78.8757 8.25081 78.3303 8.57313C77.785 8.87849 77.3504 9.30259 77.0266 9.84545C76.7199 10.3883 76.5665 11.0075 76.5665 11.703C76.5665 12.3816 76.7199 13.0008 77.0266 13.5606C77.3504 14.1035 77.785 14.5361 78.3303 14.8584C78.8757 15.1807 79.5062 15.3419 80.222 15.3419ZM93.6709 18.4463C92.7166 18.4463 91.89 18.2767 91.1913 17.9374C90.5096 17.5981 89.9899 17.1401 89.632 16.5633C89.2741 15.9865 89.0952 15.3504 89.0952 14.6548C89.0952 13.3316 89.5723 12.3137 90.5267 11.6013C91.481 10.8718 92.7336 10.5071 94.2844 10.5071C95.0172 10.5071 95.6478 10.5579 96.1761 10.6597C96.7044 10.7615 97.1389 10.8718 97.4798 10.9905V10.3798C97.4798 9.49768 97.2241 8.85304 96.7129 8.4459C96.2187 8.03876 95.5711 7.83519 94.7701 7.83519C94.2077 7.83519 93.705 7.95393 93.2619 8.19143C92.8188 8.41197 92.5376 8.81063 92.4183 9.38742H89.2741C89.3763 8.48831 89.6831 7.7334 90.1944 7.12269C90.7056 6.49501 91.3532 6.02001 92.1371 5.69769C92.9381 5.37537 93.8158 5.21421 94.7701 5.21421C96.6618 5.21421 98.1359 5.66376 99.1925 6.56287C100.266 7.46197 100.803 8.73429 100.803 10.3798V13.2298C100.803 13.8745 100.837 14.3495 100.905 14.6548C100.99 14.9602 101.118 15.1553 101.289 15.2401C101.459 15.3249 101.689 15.3673 101.979 15.3673H102.081V18.141H101.365C100.462 18.141 99.7123 18.0222 99.1158 17.7847C98.5193 17.5472 98.0848 17.0807 97.8121 16.3852C97.386 16.9789 96.8237 17.4709 96.1249 17.8611C95.4262 18.2512 94.6082 18.4463 93.6709 18.4463ZM94.4122 15.9271C94.9576 15.9271 95.4177 15.8084 95.7926 15.5709C96.1846 15.3164 96.5084 14.9771 96.764 14.553C97.0196 14.112 97.1986 13.637 97.3008 13.128C96.943 13.0262 96.5254 12.9329 96.0483 12.8481C95.5881 12.7463 95.1195 12.6954 94.6423 12.6954C93.9777 12.6954 93.4408 12.8481 93.0318 13.1535C92.6399 13.4419 92.4439 13.849 92.4439 14.3749C92.4439 14.8329 92.6143 15.2062 92.9551 15.4945C93.313 15.7829 93.7987 15.9271 94.4122 15.9271ZM103.505 18.141V5.51956H106.828V7.07179C107.237 6.49501 107.774 6.04546 108.438 5.72313C109.103 5.38385 109.853 5.21421 110.688 5.21421C111.659 5.21421 112.494 5.4093 113.193 5.79947C113.892 6.17269 114.437 6.72403 114.829 7.45349C115.306 6.75795 115.928 6.2151 116.695 5.82492C117.462 5.41778 118.314 5.21421 119.252 5.21421C120.905 5.21421 122.174 5.71465 123.06 6.71554C123.947 7.69947 124.39 9.14143 124.39 11.0414V18.141H121.092V11.3468C121.092 10.2611 120.879 9.43831 120.453 8.87849C120.044 8.3017 119.396 8.01331 118.51 8.01331C117.641 8.01331 116.942 8.33563 116.414 8.98027C115.886 9.60795 115.622 10.4901 115.622 11.6267V18.141H112.324V11.3468C112.324 10.2611 112.102 9.43831 111.659 8.87849C111.233 8.3017 110.586 8.01331 109.717 8.01331C108.864 8.01331 108.166 8.33563 107.62 8.98027C107.092 9.60795 106.828 10.4901 106.828 11.6267V18.141H103.505ZM132.632 18.4463C131.336 18.4463 130.195 18.1749 129.206 17.632C128.218 17.0722 127.442 16.3088 126.88 15.3419C126.318 14.3579 126.036 13.2213 126.036 11.9321C126.036 10.6258 126.309 9.46375 126.854 8.4459C127.417 7.42804 128.192 6.6392 129.181 6.07938C130.169 5.5026 131.319 5.21421 132.632 5.21421C133.893 5.21421 135 5.48563 135.955 6.02849C136.909 6.57135 137.65 7.30929 138.179 8.24233C138.724 9.17536 138.997 10.2356 138.997 11.4231C138.997 11.5928 138.997 11.7794 138.997 11.9829C138.997 12.1865 138.98 12.3986 138.946 12.6191H128.439V10.5834H135.648C135.597 9.76911 135.29 9.11599 134.728 8.62402C134.165 8.13206 133.475 7.88608 132.657 7.88608C132.044 7.88608 131.481 8.02179 130.97 8.29322C130.459 8.56465 130.05 8.97179 129.743 9.51465C129.453 10.0405 129.308 10.7191 129.308 11.5504V12.2629C129.308 12.9754 129.453 13.5946 129.743 14.1204C130.033 14.6463 130.425 15.0535 130.919 15.3419C131.413 15.6133 131.975 15.749 132.606 15.749C133.254 15.749 133.799 15.6048 134.242 15.3164C134.685 15.028 135.026 14.6463 135.265 14.1713H138.639C138.4 14.9687 138 15.6981 137.437 16.3597C136.892 17.0044 136.21 17.5133 135.392 17.8865C134.574 18.2597 133.654 18.4463 132.632 18.4463ZM140.726 18.141V5.51956H144.049V7.42804C144.458 6.74947 145.02 6.2151 145.736 5.82492C146.452 5.41778 147.287 5.21421 148.241 5.21421C149.826 5.21421 151.045 5.71465 151.897 6.71554C152.749 7.69947 153.175 9.14143 153.175 11.0414V18.141H149.852V11.3468C149.852 10.2611 149.63 9.43831 149.187 8.87849C148.761 8.3017 148.079 8.01331 147.142 8.01331C146.239 8.01331 145.497 8.33563 144.918 8.98027C144.339 9.60795 144.049 10.4901 144.049 11.6267V18.141H140.726ZM160.069 18.141C159.217 18.141 158.492 18.0477 157.896 17.8611C157.316 17.6575 156.882 17.2758 156.592 16.716C156.302 16.1392 156.158 15.3164 156.158 14.2477V8.29322H153.985V5.51956H156.158V2.1352H159.481V5.51956H162.676V8.29322H159.481V13.8405C159.481 14.2646 159.523 14.587 159.609 14.8075C159.694 15.0111 159.856 15.1468 160.094 15.2146C160.333 15.2825 160.657 15.3164 161.066 15.3164H162.599V18.141H160.069ZM169.807 18.4463C168.529 18.4463 167.378 18.1664 166.356 17.6066C165.333 17.0468 164.524 16.2664 163.927 15.2655C163.331 14.2646 163.033 13.1196 163.033 11.8303C163.033 10.524 163.331 9.37893 163.927 8.39501C164.524 7.39411 165.333 6.61376 166.356 6.05394C167.395 5.49412 168.546 5.21421 169.807 5.21421C171.085 5.21421 172.235 5.49412 173.258 6.05394C174.28 6.61376 175.09 7.39411 175.686 8.39501C176.283 9.37893 176.581 10.524 176.581 11.8303C176.581 13.1196 176.283 14.2646 175.686 15.2655C175.09 16.2664 174.28 17.0468 173.258 17.6066C172.235 18.1664 171.085 18.4463 169.807 18.4463ZM169.807 15.5963C170.42 15.5963 170.983 15.4606 171.494 15.1892C172.005 14.9008 172.406 14.4767 172.695 13.9169C173.002 13.3571 173.155 12.6615 173.155 11.8303C173.155 10.999 173.002 10.3035 172.695 9.74366C172.389 9.18384 171.98 8.76822 171.468 8.49679C170.974 8.2084 170.429 8.0642 169.832 8.0642C169.219 8.0642 168.656 8.2084 168.145 8.49679C167.634 8.78518 167.225 9.20929 166.918 9.76911C166.611 10.312 166.458 10.999 166.458 11.8303C166.458 12.6615 166.603 13.3571 166.893 13.9169C167.199 14.4767 167.608 14.9008 168.12 15.1892C168.631 15.4606 169.193 15.5963 169.807 15.5963ZM183.289 18.4463C181.619 18.4463 180.238 18.0562 179.147 17.2758C178.074 16.4954 177.469 15.4521 177.332 14.1459H180.732C180.852 14.6718 181.15 15.0959 181.627 15.4182C182.121 15.7405 182.718 15.9017 183.416 15.9017C184.149 15.9017 184.703 15.766 185.078 15.4945C185.47 15.2231 185.666 14.8923 185.666 14.5021C185.666 14.1798 185.53 13.9254 185.257 13.7387C184.984 13.5521 184.499 13.4164 183.8 13.3316C183.544 13.2977 183.212 13.2468 182.803 13.1789C182.394 13.1111 182.062 13.0517 181.806 13.0008C181.107 12.8651 180.468 12.6446 179.889 12.3392C179.309 12.0338 178.841 11.6267 178.483 11.1178C178.142 10.6088 177.972 9.97268 177.972 9.20929C177.972 8.08965 178.389 7.14813 179.224 6.38474C180.076 5.60438 181.312 5.21421 182.931 5.21421C184.55 5.21421 185.836 5.57046 186.791 6.28296C187.745 6.99545 188.282 7.99635 188.401 9.28563H185.18C185.129 8.7767 184.882 8.39501 184.439 8.14054C184.013 7.88608 183.519 7.75885 182.956 7.75885C182.292 7.75885 181.78 7.88608 181.423 8.14054C181.065 8.37804 180.886 8.67492 180.886 9.03117C180.886 9.64188 181.448 10.049 182.573 10.2526C182.743 10.2696 182.956 10.3035 183.212 10.3544C183.485 10.3883 183.766 10.4307 184.056 10.4816C184.345 10.5155 184.575 10.5495 184.746 10.5834C185.24 10.6513 185.726 10.7615 186.203 10.9142C186.68 11.0669 187.106 11.2789 187.481 11.5504C187.873 11.8048 188.18 12.1526 188.401 12.5937C188.64 13.0347 188.759 13.5776 188.759 14.2222C188.759 15.0535 188.546 15.7914 188.12 16.4361C187.694 17.0637 187.072 17.5557 186.254 17.912C185.453 18.2682 184.465 18.4463 183.289 18.4463Z" fill="white"/>
<path d="M33.1762 -0.000122333L27.8628 18.329H31.9013L36.8263 -0.000122333H33.1762Z" fill="#F47A14"/>
<path d="M27.3865 -0.000122333L22.073 18.329H26.1116L31.0366 -0.000122333H27.3865Z" fill="#F47A14"/>
<path d="M18.0583 18.3292H16.1027L17.073 14.9811L18.0583 18.3292ZM25.0663 -0.000122333L21.0471 14.9577L18.9925 8.35869L21.416 -0.000122333H25.0663Z" fill="#F47A14"/>
<path d="M4.8199 18.3291L0 0H3.59539L8.8061 18.3291H4.8199L10.708 0H14.4337L20.1394 18.3291H16.1011L10.708 0H14.4337L8.8061 18.3291H4.8199Z" fill="white"/>
<path d="M33.1762 -0.000122333L27.8628 18.329H31.9013L36.8263 -0.000122333H33.1762Z" fill="#F47A14"/>
<path d="M27.3865 -0.000122333L22.073 18.329H26.1116L31.0366 -0.000122333H27.3865Z" fill="#F47A14"/>
<path d="M18.0583 18.3292H16.1027L17.073 14.9811L18.0583 18.3292ZM25.0663 -0.000122333L21.0471 14.9577L18.9925 8.35869L21.416 -0.000122333H25.0663Z" fill="#F47A14"/>
<path d="M4.8199 18.3291L0 0H3.59539L8.8061 18.3291H4.8199L10.708 0H14.4337L20.1394 18.3291H16.1011L10.708 0H14.4337L11.6199 9.16456L8.8061 18.3291H4.8199Z" fill="white"/>
</g>
<defs>
<clipPath id="clip0_168_194">
<rect width="193.584" height="24.5646" fill="white" transform="scale(1.00215)"/>
</clipPath>
</defs>
</svg>
