<svg width="195" height="20" viewBox="0 0 195 20" fill="none" xmlns="http://www.w3.org/2000/svg">
<g clip-path="url(#clip0_168_85)">
<path d="M30.9683 17.3103V5.11444H34.1537V6.61433C34.5457 6.05699 35.0602 5.6226 35.6973 5.31114C36.3344 4.9833 37.0531 4.81937 37.8535 4.81937C38.7846 4.81937 39.585 5.00789 40.2548 5.38491C40.9245 5.74554 41.4472 6.27829 41.8229 6.98316C42.2803 6.31107 42.8765 5.78652 43.6116 5.4095C44.3467 5.01608 45.1634 4.81937 46.0619 4.81937C47.6463 4.81937 48.8633 5.30295 49.7127 6.27009C50.5621 7.22085 50.9869 8.61419 50.9869 10.4501V17.3103H47.826V10.7452C47.826 9.69608 47.6218 8.90106 47.2135 8.36011C46.8214 7.80277 46.2007 7.5241 45.3513 7.5241C44.5182 7.5241 43.8485 7.83556 43.3421 8.45846C42.8357 9.06498 42.5825 9.91738 42.5825 11.0157V17.3103H39.4217V10.7452C39.4217 9.69608 39.2093 8.90106 38.7846 8.36011C38.3762 7.80277 37.7555 7.5241 36.9224 7.5241C36.1057 7.5241 35.4359 7.83556 34.9132 8.45846C34.4068 9.06498 34.1537 9.91738 34.1537 11.0157V17.3103H30.9683Z" fill="white"/>
<path d="M58.887 17.6054C57.6456 17.6054 56.5511 17.3431 55.6037 16.8185C54.6563 16.2776 53.913 15.5399 53.374 14.6056C52.8349 13.6548 52.5654 12.5565 52.5654 11.3107C52.5654 10.0485 52.8267 8.92565 53.3495 7.94211C53.8885 6.95857 54.6318 6.19633 55.5792 5.65538C56.5266 5.09804 57.6292 4.81937 58.887 4.81937C60.0958 4.81937 61.1576 5.08165 62.0723 5.60621C62.9871 6.13076 63.6977 6.84382 64.2041 7.7454C64.7268 8.64698 64.9881 9.6715 64.9881 10.819C64.9881 10.9829 64.9881 11.1632 64.9881 11.3599C64.9881 11.5566 64.9718 11.7615 64.9391 11.9746H54.8686V10.0075H61.7783C61.7293 9.22071 61.4353 8.5896 60.8962 8.11423C60.3572 7.63885 59.6956 7.40116 58.9115 7.40116C58.3235 7.40116 57.7844 7.5323 57.2944 7.79458C56.8043 8.05685 56.4123 8.45027 56.1182 8.97482C55.8405 9.48298 55.7017 10.1387 55.7017 10.9419V11.6304C55.7017 12.3189 55.8405 12.9172 56.1182 13.4253C56.3959 13.9335 56.7716 14.3269 57.2454 14.6056C57.7191 14.8679 58.2581 14.999 58.8625 14.999C59.4832 14.999 60.006 14.8597 60.4307 14.581C60.8554 14.3023 61.1821 13.9335 61.4108 13.4745H64.6451C64.4164 14.2449 64.0325 14.9498 63.4935 15.5891C62.9708 16.212 62.3174 16.7038 61.5333 17.0644C60.7492 17.4251 59.8671 17.6054 58.887 17.6054Z" fill="white"/>
<path d="M66.6453 17.3103V5.11444H69.8306V6.95857C70.2227 6.30288 70.7617 5.78652 71.4478 5.4095C72.1339 5.01608 72.9343 4.81937 73.849 4.81937C75.3682 4.81937 76.5362 5.30295 77.3529 6.27009C78.1697 7.22085 78.578 8.61419 78.578 10.4501V17.3103H75.3927V10.7452C75.3927 9.69608 75.1803 8.90106 74.7556 8.36011C74.3473 7.80277 73.6939 7.5241 72.7954 7.5241C71.9297 7.5241 71.2191 7.83556 70.6637 8.45846C70.1083 9.06498 69.8306 9.91738 69.8306 11.0157V17.3103H66.6453Z" fill="white"/>
<path d="M85.1857 17.3103C84.3689 17.3103 83.6747 17.2201 83.103 17.0398C82.5476 16.8431 82.1311 16.4742 81.8534 15.9333C81.5757 15.376 81.4368 14.5809 81.4368 13.5482V7.79452H79.3541V5.11438H81.4368V1.84413H84.6221V5.11438H87.685V7.79452H84.6221V13.1548C84.6221 13.5646 84.663 13.8761 84.7447 14.0892C84.8263 14.2859 84.9815 14.417 85.2102 14.4826C85.4389 14.5482 85.7493 14.5809 86.1413 14.5809H87.6114V17.3103H85.1857Z" fill="white"/>
<path d="M94.5197 4.8195C95.7449 4.8195 96.8475 5.08997 97.8276 5.63092C98.8077 6.17186 99.5836 6.92591 100.155 7.89305C100.727 8.84381 101.013 9.95022 101.013 11.2124C101.013 12.4582 100.727 13.5646 100.155 14.5318C99.5836 15.4989 98.8077 16.253 97.8276 16.7939C96.8475 17.3348 95.7449 17.6053 94.5197 17.6053C93.2946 17.6053 92.192 17.3348 91.2119 16.7939C90.2318 16.253 89.4559 15.4989 88.8842 14.5318C88.3124 13.5647 88.0266 12.4582 88.0266 11.2124C88.0266 9.95025 88.3124 8.84377 88.8842 7.89305C89.4559 6.92591 90.2318 6.17186 91.2119 5.63092C92.2083 5.08997 93.3109 4.8195 94.5197 4.8195ZM94.5442 7.57323C93.9562 7.57323 93.4171 7.71281 92.9271 7.99144C92.437 8.27011 92.045 8.67981 91.751 9.22073C91.4569 9.74528 91.3099 10.4092 91.3099 11.2124C91.3099 12.0156 91.4488 12.6878 91.7264 13.2287C92.0205 13.7697 92.4125 14.1794 92.9026 14.458C93.3926 14.7203 93.9317 14.8516 94.5197 14.8516C95.1078 14.8516 95.6469 14.7203 96.1369 14.458C96.627 14.1794 97.0108 13.7696 97.2885 13.2287C97.5825 12.6878 97.7296 12.0156 97.7296 11.2124C97.7296 10.4092 97.5825 9.73698 97.2885 9.19604C96.9945 8.65516 96.6024 8.25368 96.1124 7.99144C95.6387 7.71281 95.116 7.57323 94.5442 7.57323Z" fill="white"/>
<path d="M102.585 17.3103V5.11439H105.771V6.98311C106.081 6.3602 106.481 5.87663 106.971 5.53239C107.461 5.17176 108.025 4.99144 108.662 4.99144H110.206V7.8437H108.343C107.755 7.8437 107.265 7.99943 106.873 8.31088C106.498 8.62234 106.22 9.08952 106.04 9.71242C105.861 10.3353 105.771 11.1058 105.771 12.0237V17.3103H102.585Z" fill="white"/>
<path d="M111.917 17.3101V5.11428H115.103V17.3101H111.917Z" fill="white"/>
<path d="M111.991 3.09814V0H115.078V3.09814H111.991Z" fill="white"/>
<path d="M122.329 4.8195C124.142 4.8195 125.555 5.25372 126.568 6.12248C127.597 6.99127 128.111 8.22073 128.111 9.81068V12.5648C128.111 13.1877 128.144 13.6467 128.209 13.9418C128.291 14.2368 128.414 14.4255 128.577 14.5074C128.74 14.5893 128.961 14.6301 129.238 14.6301H129.336V17.3105H128.65C127.785 17.3105 127.066 17.1955 126.494 16.966C125.922 16.7365 125.506 16.2857 125.245 15.6136C124.836 16.1873 124.297 16.663 123.627 17.04C122.958 17.417 122.174 17.6053 121.275 17.6053C120.36 17.6053 119.568 17.4416 118.898 17.1137C118.245 16.7859 117.747 16.343 117.404 15.7857C117.061 15.2284 116.889 14.6138 116.889 13.9418C116.889 12.6632 117.347 11.6794 118.261 10.991C119.176 10.2861 120.377 9.93376 121.863 9.93376C122.566 9.93376 123.17 9.98283 123.676 10.0812C124.183 10.1795 124.599 10.2863 124.926 10.401V9.81068C124.926 8.95838 124.681 8.33547 124.191 7.94209C123.717 7.54871 123.096 7.35211 122.329 7.35211C121.79 7.35211 121.308 7.46678 120.883 7.69628C120.458 7.90938 120.189 8.29456 120.075 8.85187H117.061C117.159 7.98311 117.453 7.25355 117.943 6.66343C118.433 6.05698 119.054 5.59817 119.805 5.28675C120.573 4.97529 121.414 4.8195 122.329 4.8195ZM122.206 12.0485C121.569 12.0485 121.055 12.196 120.663 12.4911C120.287 12.7697 120.099 13.1631 120.099 13.6713C120.099 14.1139 120.262 14.4746 120.589 14.7532C120.932 15.0319 121.398 15.1711 121.986 15.1711C122.508 15.1711 122.949 15.0563 123.309 14.8269C123.685 14.581 123.995 14.2532 124.24 13.8434C124.485 13.4172 124.656 12.9581 124.754 12.4664C124.411 12.368 124.011 12.2779 123.554 12.1959C123.113 12.0976 122.663 12.0485 122.206 12.0485Z" fill="white"/>
<path d="M140.711 4.8195C142.524 4.8195 143.937 5.25376 144.95 6.12248C145.979 6.99127 146.494 8.22073 146.494 9.81068V12.5648C146.494 13.1877 146.526 13.6467 146.592 13.9418C146.673 14.2368 146.796 14.4255 146.959 14.5074C147.122 14.5893 147.343 14.6301 147.621 14.6301H147.719V17.3105H147.033C146.167 17.3105 145.448 17.1955 144.876 16.966C144.305 16.7365 143.888 16.2857 143.627 15.6136C143.218 16.1873 142.679 16.663 142.01 17.04C141.34 17.417 140.556 17.6053 139.657 17.6053C138.743 17.6053 137.95 17.4415 137.281 17.1137C136.627 16.7859 136.129 16.343 135.786 15.7857C135.443 15.2284 135.271 14.6138 135.271 13.9418C135.271 12.6632 135.729 11.6794 136.644 10.991C137.558 10.2862 138.759 9.93376 140.245 9.93376C140.948 9.93376 141.553 9.9828 142.059 10.0812C142.565 10.1795 142.982 10.2863 143.308 10.401V9.81068C143.308 8.95838 143.063 8.33547 142.573 7.94209C142.099 7.54868 141.479 7.35211 140.711 7.35211C140.172 7.35214 139.69 7.46685 139.265 7.69628C138.841 7.90938 138.571 8.29453 138.457 8.85187H135.443C135.541 7.98311 135.835 7.25355 136.325 6.66343C136.815 6.05698 137.436 5.59817 138.187 5.28675C138.955 4.97529 139.796 4.81953 140.711 4.8195ZM140.588 12.0485C139.951 12.0485 139.437 12.196 139.045 12.4911C138.669 12.7697 138.481 13.1631 138.481 13.6713C138.481 14.1139 138.645 14.4745 138.971 14.7532C139.314 15.0318 139.78 15.1711 140.368 15.1711C140.891 15.1711 141.332 15.0564 141.691 14.8269C142.067 14.581 142.377 14.2531 142.622 13.8434C142.867 13.4172 143.039 12.9581 143.137 12.4664C142.794 12.368 142.393 12.2779 141.936 12.1959C141.495 12.0975 141.046 12.0485 140.588 12.0485Z" fill="white"/>
<path d="M149.083 17.3103V5.11444H152.268V6.61433C152.66 6.05699 153.175 5.6226 153.812 5.31114C154.449 4.9833 155.168 4.81937 155.968 4.81937C156.899 4.81937 157.7 5.00789 158.369 5.38491C159.039 5.74554 159.562 6.27829 159.938 6.98316C160.395 6.31107 160.991 5.78652 161.726 5.4095C162.461 5.01608 163.278 4.81937 164.176 4.81937C165.761 4.81937 166.978 5.30295 167.827 6.27009C168.677 7.22085 169.101 8.61419 169.101 10.4501V17.3103H165.941V10.7452C165.941 9.69608 165.736 8.90106 165.328 8.36011C164.936 7.80277 164.315 7.5241 163.466 7.5241C162.633 7.5241 161.963 7.83556 161.457 8.45846C160.95 9.06498 160.697 9.91738 160.697 11.0157V17.3103H157.536V10.7452C157.536 9.69608 157.324 8.90106 156.899 8.36011C156.491 7.80277 155.87 7.5241 155.037 7.5241C154.22 7.5241 153.551 7.83556 153.028 8.45846C152.521 9.06498 152.268 9.91738 152.268 11.0157V17.3103H149.083Z" fill="white"/>
<path d="M177.001 17.6054C175.76 17.6054 174.665 17.3431 173.718 16.8185C172.771 16.2776 172.027 15.5399 171.488 14.6056C170.949 13.6548 170.68 12.5565 170.68 11.3107C170.68 10.0485 170.941 8.92565 171.464 7.94211C172.003 6.95857 172.746 6.19633 173.694 5.65538C174.641 5.09804 175.744 4.81937 177.001 4.81937C178.21 4.81937 179.272 5.08165 180.187 5.60621C181.101 6.13076 181.812 6.84382 182.318 7.7454C182.841 8.64698 183.102 9.6715 183.102 10.819C183.102 10.9829 183.102 11.1632 183.102 11.3599C183.102 11.5566 183.086 11.7615 183.053 11.9746H172.983V10.0075H179.893C179.844 9.22071 179.55 8.5896 179.011 8.11423C178.472 7.63885 177.81 7.40116 177.026 7.40116C176.438 7.40116 175.899 7.5323 175.409 7.79458C174.919 8.05685 174.527 8.45027 174.233 8.97482C173.955 9.48298 173.816 10.1387 173.816 10.9419V11.6304C173.816 12.3189 173.955 12.9172 174.233 13.4253C174.51 13.9335 174.886 14.3269 175.36 14.6056C175.833 14.8679 176.372 14.999 176.977 14.999C177.598 14.999 178.12 14.8597 178.545 14.581C178.97 14.3023 179.296 13.9335 179.525 13.4745H182.759C182.531 14.2449 182.147 14.9498 181.608 15.5891C181.085 16.212 180.432 16.7038 179.648 17.0644C178.864 17.4251 177.981 17.6054 177.001 17.6054Z" fill="white"/>
<path d="M189.115 17.6054C187.514 17.6054 186.191 17.2283 185.145 16.4743C184.116 15.7203 183.536 14.7121 183.406 13.4499H186.665C186.779 13.9581 187.065 14.3679 187.522 14.6793C187.996 14.9908 188.568 15.1465 189.237 15.1465C189.94 15.1465 190.471 15.0154 190.83 14.7531C191.206 14.4908 191.393 14.1712 191.393 13.7942C191.393 13.4827 191.263 13.2368 191.001 13.0565C190.74 12.8762 190.275 12.7451 189.605 12.6631C189.36 12.6303 189.041 12.5811 188.649 12.5156C188.257 12.45 187.939 12.3926 187.694 12.3434C187.024 12.2123 186.411 11.9992 185.856 11.7041C185.301 11.4091 184.851 11.0157 184.508 10.5239C184.182 10.0321 184.018 9.41741 184.018 8.67976C184.018 7.59787 184.418 6.6881 185.219 5.95044C186.036 5.1964 187.22 4.81937 188.772 4.81937C190.324 4.81937 191.557 5.16361 192.472 5.85209C193.386 6.54057 193.901 7.50771 194.015 8.75353H190.928C190.879 8.26176 190.642 7.89293 190.217 7.64705C189.809 7.40116 189.335 7.27822 188.796 7.27822C188.159 7.27822 187.669 7.40116 187.326 7.64705C186.983 7.87654 186.812 8.1634 186.812 8.50764C186.812 9.09776 187.351 9.49118 188.429 9.68789C188.592 9.70428 188.796 9.73706 189.041 9.78624C189.303 9.81903 189.572 9.86001 189.85 9.90918C190.128 9.94197 190.348 9.97475 190.511 10.0075C190.985 10.0731 191.451 10.1797 191.908 10.3272C192.365 10.4747 192.774 10.6796 193.133 10.9419C193.509 11.1878 193.803 11.5238 194.015 11.95C194.244 12.3762 194.358 12.9008 194.358 13.5237C194.358 14.3269 194.154 15.04 193.746 15.6629C193.337 16.2694 192.741 16.7448 191.957 17.089C191.189 17.4332 190.242 17.6054 189.115 17.6054Z" fill="white"/>
<path d="M0 4.31485C4.66592e-05 2.60611 1.91233 1.6285 3.27302 2.60727L3.33749 2.6553L21.4452 16.6995L19.5468 19.1922C19.4323 19.3427 19.2176 19.3709 19.0683 19.2551L3.45628 7.14686V14.5164L6.91463 11.8016L9.69992 14.0344L3.34694 19.0212C1.98479 20.0904 8.25815e-05 19.1106 0 17.3692V4.31485Z" fill="#F47A14"/>
<path d="M18.8375 2.44509C20.1969 1.45531 22.1203 2.43151 22.1203 4.14587V15.1291L18.664 12.3387V6.9983L15.315 9.6266L12.5297 7.3941L18.7733 2.4938L18.8375 2.44509Z" fill="white"/>
</g>
<defs>
<clipPath id="clip0_168_85">
<rect width="194.366" height="19.3687" fill="white" transform="scale(1.00326)"/>
</clipPath>
</defs>
</svg>
