<svg width="147" height="19" viewBox="0 0 147 19" fill="none" xmlns="http://www.w3.org/2000/svg">
<path d="M18.481 18.2975H16.5288L17.4975 14.9553L18.481 18.2975ZM25.4769 0L21.4646 14.9319L19.4136 8.34431L21.8329 0H25.4769Z" fill="#F47A14"/>
<path d="M4.81154 18.2975L0 0.000122121H3.58915L8.79082 18.2975H4.81154L10.6894 0.000122121H14.4086L20.1045 18.2975H16.0732L10.6894 0.000122121H14.4086L11.5997 9.14879L8.79082 18.2975H4.81154Z" fill="white"/>
<path d="M27.2056 0L21.9014 18.2973H25.9329L30.8494 0H27.2056Z" fill="#F47A14"/>
<path d="M32.5782 0L27.2739 18.2973H31.3055L36.2219 0H32.5782Z" fill="#F47A14"/>
<path d="M51.1328 18.323C50.3318 18.323 49.5391 18.2168 48.7545 18.0043C47.9699 17.7754 47.2507 17.424 46.5968 16.95C45.943 16.4596 45.3954 15.8385 44.9541 15.0866C44.5291 14.3183 44.2757 13.4029 44.194 12.3405H47.1362C47.267 13.1741 47.5367 13.8279 47.9453 14.302C48.3703 14.776 48.8689 15.1111 49.441 15.3072C50.0294 15.487 50.6097 15.5769 51.1818 15.5769C51.8193 15.5769 52.3832 15.4789 52.8736 15.2827C53.3803 15.0866 53.7726 14.8087 54.0505 14.4491C54.3447 14.0731 54.4918 13.64 54.4918 13.1496C54.4918 12.6429 54.3529 12.1934 54.075 11.8011C53.7971 11.3924 53.2005 11.1064 52.2851 10.9429L49.3674 10.4035C47.9617 10.142 46.8584 9.58621 46.0574 8.73623C45.2728 7.8699 44.8805 6.84829 44.8805 5.6714C44.8805 4.59258 45.1502 3.67722 45.6896 2.92531C46.229 2.17341 46.9564 1.59314 47.8718 1.18449C48.7872 0.775849 49.7924 0.571527 50.8876 0.571527C52.0318 0.571527 53.0616 0.767676 53.9769 1.15997C54.8923 1.55227 55.636 2.15706 56.2081 2.97435C56.7802 3.77529 57.1235 4.81325 57.2379 6.08822H54.2466C54.1486 5.35266 53.9279 4.78873 53.5846 4.39643C53.2577 3.98779 52.8572 3.70174 52.3832 3.53828C51.9255 3.37482 51.4515 3.29309 50.9611 3.29309C50.5035 3.29309 50.0294 3.36665 49.5391 3.51376C49.0487 3.66087 48.64 3.90606 48.3131 4.24932C47.9862 4.57623 47.8228 5.02574 47.8228 5.59784C47.8228 6.08822 48.0026 6.52955 48.3622 6.92185C48.7381 7.2978 49.3347 7.55933 50.152 7.70645L52.8491 8.19682C54.2875 8.45835 55.4154 8.97324 56.2326 9.74149C57.0663 10.4934 57.4831 11.5967 57.4831 13.0515C57.4831 13.9178 57.2951 14.6779 56.9192 15.3317C56.5596 15.9692 56.0774 16.5168 55.4726 16.9745C54.8678 17.4158 54.1894 17.7509 53.4375 17.9798C52.6856 18.2086 51.9174 18.323 51.1328 18.323ZM63.216 18.323C62.3007 18.323 61.5079 18.1596 60.8377 17.8326C60.1839 17.5057 59.6854 17.0644 59.3421 16.5086C58.9988 15.9529 58.8272 15.3399 58.8272 14.6697C58.8272 13.3948 59.2849 12.414 60.2003 11.7275C61.1156 11.0246 62.317 10.6732 63.8045 10.6732C64.5074 10.6732 65.1122 10.7222 65.6189 10.8203C66.1256 10.9184 66.5424 11.0246 66.8693 11.1391V10.5506C66.8693 9.70063 66.6241 9.07949 66.1338 8.68719C65.6597 8.29489 65.0386 8.09874 64.2703 8.09874C63.7309 8.09874 63.2487 8.21316 62.8237 8.44201C62.3988 8.6545 62.1291 9.03863 62.0146 9.59438H58.9988C59.0969 8.72806 59.3911 8.00067 59.8815 7.41222C60.3719 6.80743 60.993 6.34975 61.7449 6.03918C62.5132 5.72861 63.355 5.57333 64.2703 5.57333C66.0847 5.57333 67.4986 6.00649 68.5121 6.87281C69.5419 7.73914 70.0567 8.96507 70.0567 10.5506V13.2967C70.0567 13.9178 70.0894 14.3755 70.1548 14.6697C70.2365 14.964 70.3591 15.1519 70.5226 15.2337C70.6861 15.3154 70.9067 15.3563 71.1846 15.3563H71.2827V18.0288H70.5962C69.7298 18.0288 69.0106 17.9144 68.4385 17.6855C67.8664 17.4567 67.4496 17.0072 67.1881 16.337C66.7794 16.9091 66.24 17.3831 65.5698 17.7591C64.8997 18.135 64.1151 18.323 63.216 18.323ZM63.9271 15.8957C64.4502 15.8957 64.8915 15.7812 65.2511 15.5524C65.627 15.3072 65.9376 14.9803 66.1828 14.5717C66.428 14.1467 66.5996 13.689 66.6977 13.1986C66.3544 13.1005 65.954 13.0106 65.4963 12.9289C65.0549 12.8308 64.6054 12.7818 64.1478 12.7818C63.5103 12.7818 62.9954 12.9289 62.6031 13.2231C62.2271 13.501 62.0392 13.8933 62.0392 14.4C62.0392 14.8414 62.2026 15.201 62.5295 15.4789C62.8728 15.7567 63.3386 15.8957 63.9271 15.8957ZM76.8162 18.323C75.9009 18.323 75.1081 18.1596 74.4379 17.8326C73.7841 17.5057 73.2855 17.0644 72.9423 16.5086C72.599 15.9529 72.4274 15.3399 72.4274 14.6697C72.4274 13.3948 72.8851 12.414 73.8004 11.7275C74.7158 11.0246 75.9172 10.6732 77.4047 10.6732C78.1075 10.6732 78.7123 10.7222 79.219 10.8203C79.7258 10.9184 80.1426 11.0246 80.4695 11.1391V10.5506C80.4695 9.70063 80.2243 9.07949 79.7339 8.68719C79.2599 8.29489 78.6388 8.09874 77.8705 8.09874C77.3311 8.09874 76.8489 8.21316 76.4239 8.44201C75.9989 8.6545 75.7292 9.03863 75.6148 9.59438H72.599C72.6971 8.72806 72.9913 8.00067 73.4817 7.41222C73.9721 6.80743 74.5932 6.34975 75.3451 6.03918C76.1134 5.72861 76.9552 5.57333 77.8705 5.57333C79.6849 5.57333 81.0988 6.00649 82.1122 6.87281C83.142 7.73914 83.6569 8.96507 83.6569 10.5506V13.2967C83.6569 13.9178 83.6896 14.3755 83.755 14.6697C83.8367 14.964 83.9593 15.1519 84.1228 15.2337C84.2862 15.3154 84.5069 15.3563 84.7848 15.3563H84.8828V18.0288H84.1963C83.33 18.0288 82.6108 17.9144 82.0387 17.6855C81.4666 17.4567 81.0498 17.0072 80.7882 16.337C80.3796 16.9091 79.8402 17.3831 79.17 17.7591C78.4998 18.135 77.7152 18.323 76.8162 18.323ZM77.5273 15.8957C78.0503 15.8957 78.4917 15.7812 78.8513 15.5524C79.2272 15.3072 79.5378 14.9803 79.783 14.5717C80.0282 14.1467 80.1998 13.689 80.2979 13.1986C79.9546 13.1005 79.5541 13.0106 79.0965 12.9289C78.6551 12.8308 78.2056 12.7818 77.7479 12.7818C77.1104 12.7818 76.5956 12.9289 76.2033 13.2231C75.8273 13.501 75.6393 13.8933 75.6393 14.4C75.6393 14.8414 75.8028 15.201 76.1297 15.4789C76.473 15.7567 76.9388 15.8957 77.5273 15.8957ZM92.8192 18.323C92.0183 18.323 91.2255 18.2168 90.4409 18.0043C89.6563 17.7754 88.9371 17.424 88.2833 16.95C87.6294 16.4596 87.0819 15.8385 86.6405 15.0866C86.2155 14.3183 85.9622 13.4029 85.8804 12.3405H88.8227C88.9535 13.1741 89.2232 13.8279 89.6318 14.302C90.0568 14.776 90.5553 15.1111 91.1274 15.3072C91.7159 15.487 92.2962 15.5769 92.8683 15.5769C93.5057 15.5769 94.0697 15.4789 94.56 15.2827C95.0668 15.0866 95.4591 14.8087 95.7369 14.4491C96.0312 14.0731 96.1783 13.64 96.1783 13.1496C96.1783 12.6429 96.0393 12.1934 95.7615 11.8011C95.4836 11.3924 94.887 11.1064 93.9716 10.9429L91.0539 10.4035C89.6481 10.142 88.5448 9.58621 87.7439 8.73623C86.9593 7.8699 86.567 6.84829 86.567 5.6714C86.567 4.59258 86.8367 3.67722 87.3761 2.92531C87.9155 2.17341 88.6429 1.59314 89.5582 1.18449C90.4736 0.775849 91.4789 0.571527 92.574 0.571527C93.7182 0.571527 94.748 0.767676 95.6634 1.15997C96.5787 1.55227 97.3225 2.15706 97.8946 2.97435C98.4667 3.77529 98.8099 4.81325 98.9244 6.08822H95.9331C95.835 5.35266 95.6143 4.78873 95.2711 4.39643C94.9442 3.98779 94.5437 3.70174 94.0697 3.53828C93.612 3.37482 93.138 3.29309 92.6476 3.29309C92.1899 3.29309 91.7159 3.36665 91.2255 3.51376C90.7351 3.66087 90.3265 3.90606 89.9996 4.24932C89.6727 4.57623 89.5092 5.02574 89.5092 5.59784C89.5092 6.08822 89.689 6.52955 90.0486 6.92185C90.4246 7.2978 91.0212 7.55933 91.8385 7.70645L94.5355 8.19682C95.974 8.45835 97.1018 8.97324 97.9191 9.74149C98.7527 10.4934 99.1695 11.5967 99.1695 13.0515C99.1695 13.9178 98.9816 14.6779 98.6056 15.3317C98.246 15.9692 97.7638 16.5168 97.159 16.9745C96.5542 17.4158 95.8759 17.7509 95.124 17.9798C94.3721 18.2086 93.6038 18.323 92.8192 18.323ZM112.803 18.0288L108.267 0.86575H111.651L115.133 16.288H114.25L118.345 0.86575H121.851L125.823 16.3125H124.94L128.422 0.86575H131.854L127.22 18.0288H123.42L119.742 4.29836H120.331L116.555 18.0288H112.803ZM140.429 18.323C139.17 18.323 138.026 18.1187 136.996 17.71C135.967 17.3014 135.141 16.6884 134.52 15.8711C133.899 15.0375 133.572 13.9832 133.539 12.7082H136.678C136.678 13.2477 136.825 13.7462 137.119 14.2039C137.413 14.6452 137.838 14.9967 138.394 15.2582C138.966 15.5197 139.644 15.6505 140.429 15.6505C141.541 15.6505 142.382 15.3971 142.954 14.8904C143.543 14.3837 143.837 13.7544 143.837 13.0025C143.837 12.3977 143.665 11.8991 143.322 11.5068C142.979 11.0982 142.497 10.7958 141.876 10.5996C141.271 10.3871 140.576 10.2809 139.792 10.2809H138.296V7.65741H139.792C140.805 7.65741 141.647 7.46943 142.317 7.09348C143.003 6.71753 143.347 6.14543 143.347 5.37718C143.347 4.72335 143.077 4.20846 142.538 3.8325C142.015 3.45655 141.304 3.26857 140.405 3.26857C139.407 3.26857 138.631 3.50559 138.075 3.97962C137.519 4.45364 137.217 5.03392 137.168 5.72044H134.03C134.079 4.64162 134.365 3.72626 134.888 2.97435C135.427 2.2061 136.171 1.61765 137.119 1.20901C138.067 0.784021 139.162 0.571527 140.405 0.571527C141.712 0.571527 142.816 0.775849 143.715 1.18449C144.63 1.59314 145.316 2.14889 145.774 2.85176C146.232 3.53828 146.461 4.29836 146.461 5.13199C146.461 6.09639 146.166 6.91368 145.578 7.58385C144.989 8.25403 144.262 8.70354 143.396 8.93238C144.458 9.11218 145.325 9.57804 145.995 10.3299C146.665 11.0655 147 11.9972 147 13.1251C147 14.0731 146.747 14.9394 146.24 15.724C145.733 16.5086 144.989 17.1379 144.009 17.612C143.044 18.086 141.851 18.323 140.429 18.323Z" fill="white"/>
</svg>
